<svg xmlns="http://www.w3.org/2000/svg" width="580" height="580" version="1.0"><metadata id="metadata2975"/><path id="path4193" fill="none" stroke="#fff" stroke-linejoin="round" stroke-width="64" d="M 293.31641 95.164062 L 74.449219 166.09961 L 41.287109 166.09961 L 41.287109 236.08984 L 87.712891 236.08984 L 87.712891 435.6543 L 65.921875 435.6543 L 36.548828 484.83594 L 543.45117 483.88867 L 515.97266 435.6543 L 490.39062 435.6543 L 490.39062 236.08984 L 539.66016 236.08984 L 539.66016 166.09961 L 507.44531 166.09961 L 293.31641 95.164062 z M 134.14062 236.08984 L 204.25391 236.08984 L 204.25391 435.6543 L 134.14062 435.6543 L 134.14062 236.08984 z M 249.73242 236.08984 L 328.37305 236.08984 L 328.37305 435.6543 L 249.73242 435.6543 L 249.73242 236.08984 z M 373.85156 236.08984 L 443.96484 236.08984 L 443.96484 435.6543 L 373.85156 435.6543 L 373.85156 236.08984 z" color="#000" color-interpolation="sRGB" color-interpolation-filters="linearRGB" color-rendering="auto" filter-blend-mode="normal" filter-gaussianBlur-deviation="0" image-rendering="auto" isolation="auto" mix-blend-mode="normal" opacity=".8" shape-rendering="auto" solid-color="#000000" solid-opacity="1"/><path id="path4181" fill="#b7650c" d="M 293.31641 95.164062 L 74.449219 166.09961 L 41.287109 166.09961 L 41.287109 236.08984 L 87.712891 236.08984 L 87.712891 435.6543 L 65.921875 435.6543 L 36.548828 484.83594 L 543.45117 483.88867 L 515.97266 435.6543 L 490.39062 435.6543 L 490.39062 236.08984 L 539.66016 236.08984 L 539.66016 166.09961 L 507.44531 166.09961 L 293.31641 95.164062 z M 134.14062 236.08984 L 204.25391 236.08984 L 204.25391 435.6543 L 134.14062 435.6543 L 134.14062 236.08984 z M 249.73242 236.08984 L 328.37305 236.08984 L 328.37305 435.6543 L 249.73242 435.6543 L 249.73242 236.08984 z M 373.85156 236.08984 L 443.96484 236.08984 L 443.96484 435.6543 L 373.85156 435.6543 L 373.85156 236.08984 z"/></svg>