<svg xmlns="http://www.w3.org/2000/svg" width="580" height="580" version="1.0"><metadata id="metadata10"/><path id="path4142" fill="none" stroke="#fff" stroke-linejoin="round" stroke-width="64" d="m 459.79151,89.267407 -0.23561,0 c 0.26941,-0.2328 0.41773,-0.46748 0.41773,-0.70404 0,-5.573165 -76.09903,-10.091214 -169.97363,-10.091214 -93.87365,0 -169.97362,4.518049 -169.97362,10.091214 16.98486,141.144143 34.27468,275.383353 52.57007,405.994503 0,3.85062 52.56443,6.96998 117.40542,6.96998 64.84193,0 117.40543,-3.11936 117.40543,-6.96998 15.16182,-134.06839 34.70027,-270.57874 52.38421,-405.290463 z" color="#000" color-interpolation="sRGB" color-interpolation-filters="linearRGB" color-rendering="auto" filter-blend-mode="normal" filter-gaussianBlur-deviation="0" image-rendering="auto" isolation="auto" mix-blend-mode="normal" opacity=".8" shape-rendering="auto" solid-color="#000000" solid-opacity="1"/><path id="path4140" fill="#734a08" d="m 459.79151,89.267407 -0.23561,0 c 0.26941,-0.2328 0.41773,-0.46748 0.41773,-0.70404 0,-5.573165 -76.09903,-10.091214 -169.97363,-10.091214 -93.87365,0 -169.97362,4.518049 -169.97362,10.091214 16.98486,141.144143 34.27468,275.383353 52.57007,405.994503 0,3.85062 52.56443,6.96998 117.40542,6.96998 64.84193,0 117.40543,-3.11936 117.40543,-6.96998 15.16182,-134.06839 34.70027,-270.57874 52.38421,-405.290463 z"/><path id="path2209" fill="#fff" d="m 374.57659,450.95662 c -2.71759,2.51482 -163.90077,1.33635 -166.61836,-1.17848 L 157.5658,130.37674 c 89.25089,61.86655 147.94966,-8.40244 264.8684,-2.35695 z" opacity=".8"/></svg>