<svg xmlns="http://www.w3.org/2000/svg" width="580" height="580" version="1.0"><metadata id="metadata2975"/><path id="path4140" fill="none" stroke="#fff" stroke-linejoin="round" stroke-width="64" d="M 291.05469 32.746094 C 270.08872 33.475826 254.79688 57.813281 264 76.800781 C 271.6 97.300781 301.00039 102.79961 315.90039 86.599609 C 331.70039 71.599609 325.29922 42.000391 304.69922 34.900391 C 301.09922 33.500391 297.09961 32.7 293.09961 32.75 C 292.41211 32.723438 291.73101 32.722554 291.05469 32.746094 z M 205.62695 64.748047 C 191.61177 64.811337 182.80234 83.446094 192.19922 94.199219 C 206.59922 112.59922 220.19961 131.19922 235.09961 149.19922 C 243.99961 156.79922 256.09961 152.20039 266.59961 152.40039 L 282.09961 151.30078 C 288.29961 177.30078 293.9 203.30078 300.5 229.30078 C 284.2 245.60078 267.49961 261.29922 251.59961 278.19922 C 243.89961 289.19922 246.99961 304.89922 253.59961 315.19922 C 262.29961 326.39922 276.99922 322.79922 289.19922 323.19922 C 315.79922 322.79922 342.19922 322.69922 369.19922 322.19922 C 385.99922 321.29922 395.69922 299.40078 385.19922 286.30078 C 377.99922 275.30078 364.29922 276.99961 353.19922 277.09961 L 329.19922 277.40039 C 343.79922 265.40039 358.99961 253.80039 373.09961 241.40039 C 381.29961 230.40039 380.59961 214.90039 377.59961 202.40039 C 371.59961 176.80039 365.89961 151.40039 359.59961 125.40039 C 352.29961 99.600391 317.59922 88.5 296.69922 105.5 C 287.69922 112.7 286.70039 114.89922 277.40039 115.19922 L 255.90039 116.69922 C 243.00039 100.99922 231 85 219 69 C 215 67 211 64.900781 207 64.800781 C 206.5375 64.763281 206.07906 64.746005 205.62695 64.748047 z M 216 362 C 210.6 362 206.30078 366.40078 206.30078 371.80078 L 206.30078 535.80078 C 206.30078 541.20078 210.7 545.59961 216 545.59961 L 380 545.59961 C 385.4 545.59961 389.69922 541.20078 389.69922 535.80078 L 389.69922 371.80078 C 389.69922 366.40078 385.3 362 380 362 L 216 362 z" color="#000" color-interpolation="sRGB" color-interpolation-filters="linearRGB" color-rendering="auto" filter-blend-mode="normal" filter-gaussianBlur-deviation="0" image-rendering="auto" isolation="auto" mix-blend-mode="normal" opacity=".8" shape-rendering="auto" solid-color="#000000" solid-opacity="1" white-space="normal"/><path id="rect4154" d="M 291.05469 32.746094 C 270.08872 33.475826 254.79688 57.813281 264 76.800781 C 271.6 97.300781 301.00039 102.79961 315.90039 86.599609 C 331.70039 71.599609 325.29922 42.000391 304.69922 34.900391 C 301.09922 33.500391 297.09961 32.7 293.09961 32.75 C 292.41211 32.723438 291.73101 32.722554 291.05469 32.746094 z M 205.62695 64.748047 C 191.61177 64.811337 182.80234 83.446094 192.19922 94.199219 C 206.59922 112.59922 220.19961 131.19922 235.09961 149.19922 C 243.99961 156.79922 256.09961 152.20039 266.59961 152.40039 L 282.09961 151.30078 C 288.29961 177.30078 293.9 203.30078 300.5 229.30078 C 284.2 245.60078 267.49961 261.29922 251.59961 278.19922 C 243.89961 289.19922 246.99961 304.89922 253.59961 315.19922 C 262.29961 326.39922 276.99922 322.79922 289.19922 323.19922 C 315.79922 322.79922 342.19922 322.69922 369.19922 322.19922 C 385.99922 321.29922 395.69922 299.40078 385.19922 286.30078 C 377.99922 275.30078 364.29922 276.99961 353.19922 277.09961 L 329.19922 277.40039 C 343.79922 265.40039 358.99961 253.80039 373.09961 241.40039 C 381.29961 230.40039 380.59961 214.90039 377.59961 202.40039 C 371.59961 176.80039 365.89961 151.40039 359.59961 125.40039 C 352.29961 99.600391 317.59922 88.5 296.69922 105.5 C 287.69922 112.7 286.70039 114.89922 277.40039 115.19922 L 255.90039 116.69922 C 243.00039 100.99922 231 85 219 69 C 215 67 211 64.900781 207 64.800781 C 206.5375 64.763281 206.07906 64.746005 205.62695 64.748047 z M 216 362 C 210.6 362 206.30078 366.40078 206.30078 371.80078 L 206.30078 535.80078 C 206.30078 541.20078 210.7 545.59961 216 545.59961 L 380 545.59961 C 385.4 545.59961 389.69922 541.20078 389.69922 535.80078 L 389.69922 371.80078 C 389.69922 366.40078 385.3 362 380 362 L 216 362 z" color="#000" color-interpolation="sRGB" color-interpolation-filters="linearRGB" color-rendering="auto" image-rendering="auto" isolation="auto" mix-blend-mode="normal" shape-rendering="auto" solid-color="#000000" solid-opacity="1" white-space="normal"/><path id="rect3587" fill="#fff" d="m 226,382 144,0 0,144 -144,0 z" color="#000" color-interpolation="sRGB" color-interpolation-filters="linearRGB" color-rendering="auto" image-rendering="auto" isolation="auto" mix-blend-mode="normal" opacity=".8" shape-rendering="auto" solid-color="#000000" solid-opacity="1" white-space="normal"/></svg>